<svg id="Layer_1" data-name="Layer 1" xmlns="http://www.w3.org/2000/svg" viewBox="0 0 913.58 1080"><path d="M564.81,427.12c-.85-1.07,1-4.16,2.48-7.44,10.49-23.88,22.86-47.17,30.87-71.86,14.74-45.42,20.44-92.45,19.14-140.38-.38-14-4.18-24.17-17.61-29.51H588.82c-13.48,5.28-18.66,15.37-17.51,29.46.46,5.6-.26,11.29.18,16.89.36,4.67-1.42,6.61-5.78,8a214.29,214.29,0,0,0-71.87,39.63c-2.74,2.3-5.43,4.63-8.13,6.95-2.7-2.32-5.39-4.65-8.12-6.95a214.34,214.34,0,0,0-71.88-39.63c-4.35-1.42-6.14-3.36-5.77-8,.43-5.6-.28-11.29.18-16.89,1.14-14.09-4-24.18-17.51-29.46H371.73c-13.43,5.34-17.22,15.47-17.6,29.51-1.31,47.93,4.39,95,19.13,140.38,8,24.69,20.39,48,30.87,71.86,1.44,3.28,3.33,6.37,2.49,7.44,0,0-127.24,357.24-130.31,509.08h418.8C692,784.36,564.81,427.12,564.81,427.12Z" fill="#9bdbcd"/></svg>