<?xml version="1.0" encoding="UTF-8" standalone="no"?>
<svg
   xmlns:dc="http://purl.org/dc/elements/1.1/"
   xmlns:cc="http://creativecommons.org/ns#"
   xmlns:rdf="http://www.w3.org/1999/02/22-rdf-syntax-ns#"
   xmlns:svg="http://www.w3.org/2000/svg"
   xmlns="http://www.w3.org/2000/svg"
   width="11.858624mm"
   height="11.982282mm"
   viewBox="0 0 11.858624 11.982282"
   version="1.1"
   id="svg994">
  <defs
     id="defs988" />
  <metadata
     id="metadata991">
    <rdf:RDF>
      <cc:Work
         rdf:about="">
        <dc:format>image/svg+xml</dc:format>
        <dc:type
           rdf:resource="http://purl.org/dc/dcmitype/StillImage" />
        <dc:title></dc:title>
      </cc:Work>
    </rdf:RDF>
  </metadata>
  <g
     id="layer1"
     transform="translate(21.04836,-297.14575)">
    <path
       class="st0"
       d="m -15.193131,298.87016 c -1.050396,-0.27517 -1.902354,0.15346 -2.428875,0.56092 -1.076854,0.83079 -1.799167,2.33891 -1.799167,3.75179 0,1.15887 0.83873,2.413 0.846667,2.42358 l 0.01852,0.0317 c 0.0291,0.0582 0.769937,1.45786 2.841625,1.8124 l 0.01587,0.003 c 0.01587,0.003 0.171979,0.0291 0.582083,0.0291 2.373313,0 4.302125,-1.92881 4.302125,-4.30213 -0.0026,-2.61403 -2.383896,-3.78613 -4.378854,-4.31001 z m -1.251479,5.41602 c -0.232833,0 -0.423333,-0.1905 -0.423333,-0.42333 0,-0.23284 0.1905,-0.42334 0.423333,-0.42334 0.232833,0 0.423333,0.1905 0.423333,0.42334 0,0.23548 -0.1905,0.42333 -0.423333,0.42333 z m 0.423333,-2.00554 c -0.232833,0 -0.423333,-0.1905 -0.423333,-0.42333 0,-0.23284 0.1905,-0.42334 0.423333,-0.42334 0.232834,0 0.423334,0.1905 0.423334,0.42334 0,0.23548 -0.1905,0.42333 -0.423334,0.42333 z m 1.812396,2.48708 c -0.232833,0 -0.423333,-0.1905 -0.423333,-0.42333 0,-0.23283 0.1905,-0.42333 0.423333,-0.42333 0.232833,0 0.423333,0.1905 0.423333,0.42333 0.0027,0.23283 -0.187854,0.42333 -0.423333,0.42333 z m 0.425979,-2.00554 c -0.232833,0 -0.423333,-0.1905 -0.423333,-0.42333 0,-0.23284 0.1905,-0.42334 0.423333,-0.42334 0.232834,0 0.423334,0.1905 0.423334,0.42334 0,0.23283 -0.1905,0.42333 -0.423334,0.42333 z"
       id="path875"
       style="fill:#87ddcd;stroke-width:0.264583" />
    <path
       class="st0"
       d="m -15.119048,297.26943 c -3.167062,-0.82814 -5.929312,2.65377 -5.929312,5.92931 0,1.63248 1.156229,3.33905 1.156229,3.33905 0,0 1.026583,2.04258 3.939646,2.54264 0,0 0.198437,0.0476 0.833437,0.0476 3.272896,0 5.9293129,-2.65377 5.9293129,-5.92931 -0.00265,-3.27555 -2.6220209,-5.06413 -5.9293129,-5.92932 z m 0,10.81088 c -0.455083,0 -0.645583,-0.0317 -0.703791,-0.0423 -2.270125,-0.39159 -3.151188,-1.91559 -3.254375,-2.11138 -0.105834,-0.1614 -0.939271,-1.45786 -0.939271,-2.74109 0,-1.61131 0.796396,-3.27025 2.029354,-4.2201 0.894292,-0.69056 1.939396,-0.92869 2.942167,-0.66675 3.153833,0.8255 4.820708,2.51354 4.820708,4.88685 0,2.69611 -2.196042,4.8948 -4.894792,4.8948 z"
       id="path877"
       style="fill:#87ddcd;stroke-width:0.264583" />
  </g>
</svg>
