<?xml version="1.0" encoding="UTF-8" standalone="no"?>
<svg
   xmlns:dc="http://purl.org/dc/elements/1.1/"
   xmlns:cc="http://creativecommons.org/ns#"
   xmlns:rdf="http://www.w3.org/1999/02/22-rdf-syntax-ns#"
   xmlns:svg="http://www.w3.org/2000/svg"
   xmlns="http://www.w3.org/2000/svg"
   width="14.32713mm"
   height="12.161662mm"
   viewBox="0 0 14.32713 12.161662"
   version="1.1"
   id="svg7243">
  <defs
     id="defs7237" />
  <metadata
     id="metadata7240">
    <rdf:RDF>
      <cc:Work
         rdf:about="">
        <dc:format>image/svg+xml</dc:format>
        <dc:type
           rdf:resource="http://purl.org/dc/dcmitype/StillImage" />
        <dc:title></dc:title>
      </cc:Work>
    </rdf:RDF>
  </metadata>
  <g
     id="layer1"
     transform="translate(-62.38403,-368.11561)">
    <path
       class="st0"
       d="m 76.631842,370.49625 c -0.862541,-0.60325 -1.73302,-1.19856 -2.584979,-1.81504 -0.341312,-0.24606 -0.706437,-0.37306 -1.113896,-0.41275 -0.206375,-0.0212 -0.410104,-0.0476 -0.613833,-0.0767 -0.574146,-0.0767 -1.140354,-0.12171 -1.701271,0.12964 -0.291041,0.12965 -0.62177,0.1905 -0.941916,0.22755 -0.608542,0.0714 -1.190625,-0.0794 -1.743604,-0.32544 -0.251355,-0.11113 -0.505355,-0.127 -0.769938,-0.09 -0.256646,0.0344 -0.513292,0.0582 -0.769937,0.0794 -0.526521,0.0423 -1.02923,0.1561 -1.468438,0.4736 -0.801687,0.58208 -1.608667,1.15887 -2.410354,1.73831 -0.04498,0.0318 -0.08467,0.0688 -0.129646,0.10319 0.0291,0.0688 0.05292,0.127 0.07673,0.18256 0.322792,0.73819 0.650875,1.47373 0.965729,2.21192 0.05292,0.12171 0.105834,0.13758 0.219605,0.0979 0.502708,-0.16933 1.008062,-0.33337 1.513416,-0.50006 0.06085,-0.0212 0.124354,-0.0344 0.209021,-0.0556 0.0053,0.0979 0.01323,0.17198 0.01323,0.24871 0,2.23044 -0.0027,4.46087 -0.0027,6.69131 0,0.39688 0,0.39688 0.386292,0.50006 1.013354,0.27517 2.055812,0.34396 3.095625,0.36513 0.799041,0.0159 1.603375,0.0106 2.397125,-0.0635 0.717021,-0.0661 1.423458,-0.23548 2.132542,-0.36248 0.111125,-0.0212 0.166687,-0.0952 0.169333,-0.20902 0,-0.0609 0.0026,-0.12436 0.0026,-0.18521 0,-1.38906 -0.0026,-2.78077 -0.0026,-4.16983 0,-0.88107 0,-1.76213 0,-2.64584 0,-0.0582 0.01058,-0.11906 0.01587,-0.19314 0.06615,0.0185 0.116417,0.0291 0.164042,0.045 0.55827,0.18256 1.119187,0.35983 1.674812,0.55298 0.140229,0.0476 0.203729,0.0344 0.264583,-0.11113 0.15875,-0.39158 0.336021,-0.77523 0.505355,-1.16417 0.174625,-0.40216 0.34925,-0.80168 0.52652,-1.2065 -0.03175,-0.0212 -0.05292,-0.045 -0.07938,-0.0609 z m -5.662083,-1.45256 c -0.280458,0.35454 -0.669396,0.52652 -1.100666,0.60325 -0.653521,0.11641 -1.25148,-0.0159 -1.764771,-0.45244 -0.240771,-0.20373 -0.373063,-0.4736 -0.375709,-0.83608 1.153584,0.55562 2.293938,0.6006 3.455459,-0.005 0.01587,0.29369 -0.06615,0.50536 -0.214313,0.69057 z"
       id="path843"
       style="fill:#87ddcd;stroke-width:0.264583" />
  </g>
</svg>
