<?xml version="1.0" encoding="UTF-8" standalone="no"?>
<svg
   xmlns:dc="http://purl.org/dc/elements/1.1/"
   xmlns:cc="http://creativecommons.org/ns#"
   xmlns:rdf="http://www.w3.org/1999/02/22-rdf-syntax-ns#"
   xmlns:svg="http://www.w3.org/2000/svg"
   xmlns="http://www.w3.org/2000/svg"
   xmlns:sodipodi="http://sodipodi.sourceforge.net/DTD/sodipodi-0.dtd"
   xmlns:inkscape="http://www.inkscape.org/namespaces/inkscape"
   width="24.077084mm"
   height="24.077084mm"
   viewBox="0 0 24.077084 24.077084"
   version="1.1"
   id="svg2204"
   inkscape:version="1.0.1 (c497b03c, 2020-09-10)"
   sodipodi:docname="t-shirt.svg">
  <defs
     id="defs2198" />
  <sodipodi:namedview
     id="base"
     pagecolor="#ffffff"
     bordercolor="#666666"
     borderopacity="1.0"
     inkscape:pageopacity="0.0"
     inkscape:pageshadow="2"
     inkscape:zoom="3.959798"
     inkscape:cx="45.499962"
     inkscape:cy="45.499981"
     inkscape:document-units="mm"
     inkscape:current-layer="g935"
     inkscape:document-rotation="0"
     showgrid="false"
     inkscape:window-width="1252"
     inkscape:window-height="847"
     inkscape:window-x="0"
     inkscape:window-y="25"
     inkscape:window-maximized="0" />
  <metadata
     id="metadata2201">
    <rdf:RDF>
      <cc:Work
         rdf:about="">
        <dc:format>image/svg+xml</dc:format>
        <dc:type
           rdf:resource="http://purl.org/dc/dcmitype/StillImage" />
        <dc:title></dc:title>
      </cc:Work>
    </rdf:RDF>
  </metadata>
  <g
     inkscape:label="Layer 1"
     inkscape:groupmode="layer"
     id="layer1"
     transform="translate(-93.794802,-136.12813)">
    <circle
       class="st2"
       cx="105.83334"
       cy="148.16667"
       r="12.038542"
       id="circle927"
       style="fill:#3f3f3f;stroke-width:0.264583"
       inkscape:export-xdpi="96"
       inkscape:export-ydpi="96" />
    <g
       id="g935"
       transform="matrix(0.26458333,0,0,0.26458333,77.76898,127.28046)">
      <path
         class="st0"
         d="m 90.32,59.32 c 0,0 3.34,-5.09 3.81,-5.98 0.47,-0.89 1.12,-2.55 3.04,-3.04 1.92,-0.49 2.97,-0.07 5.08,0.95 2.11,1.02 4.89,1.53 5.56,1.45 l 0.04,2.22 -9.38,-1.12 -6.87,7.11 c 0,0 -1.43,-1.17 -1.28,-1.59 z"
         id="path929"
         style="fill:#87ddcd;fill-opacity:1"
         inkscape:export-xdpi="96"
         inkscape:export-ydpi="96" />
      <path
         class="st0"
         d="m 96.82,51.18 c -0.12,0 -0.24,-0.07 -0.3,-0.19 -1.26,-2.63 -0.9,-3.01 -0.78,-3.14 0.12,-0.14 0.4,-1.03 0.14,-1.7 -0.16,-0.42 -0.5,-0.66 -1.03,-0.72 -0.43,-0.05 -0.75,0.04 -1.01,0.26 -0.59,0.53 -0.57,1.65 -0.57,1.66 0,0.18 -0.14,0.33 -0.32,0.34 0,0 0,0 -0.01,0 -0.18,0 -0.32,-0.14 -0.33,-0.32 0,-0.06 -0.02,-1.42 0.79,-2.16 0.4,-0.36 0.91,-0.5 1.53,-0.43 1,0.12 1.41,0.7 1.58,1.17 0.33,0.9 0,2.05 -0.29,2.36 -0.02,0.18 0.37,1.31 0.89,2.41 0.08,0.16 0.01,0.36 -0.16,0.44 -0.03,0.01 -0.08,0.02 -0.13,0.02 z"
         id="path931"
         style="fill:#87ddcd;fill-opacity:1"
         inkscape:export-xdpi="96"
         inkscape:export-ydpi="96" />
      <path
         class="st3"
         d="m 100.55,112.75 -10.42,-30.73 -1.4,2.74 c 0,0 -0.19,0.72 -1.31,0.33 -1.12,-0.39 -10.64,-2.43 -11.97,-2.47 -1.33,-0.04 0.31,-2.01 1.14,-3.55 0.82,-1.54 4.34,-10.27 4.49,-10.89 0.15,-0.61 7.24,-7.29 7.65,-7.62 0.4,-0.33 1.4,-2.07 1.85,-2.27 0,0 4.83,6.53 11.26,3.76 6.43,-2.77 4.86,-9.69 4.86,-9.69 0,0 0.49,-0.27 1.26,-0.12 0.77,0.15 2.48,0.39 3.51,0.44 1.03,0.05 5.3,0.4 6.63,0.34 1.33,-0.06 1.92,0.1 2.43,0.37 0.51,0.27 3.31,1.85 4.98,2.9 1.67,1.06 3.75,2.31 5.17,2.49 1.42,0.19 3.67,0.97 3.65,1.23 -0.02,0.25 -3.78,4.74 -4.03,5.39 -0.25,0.65 -3.13,5.49 -3.54,5.39 -0.41,-0.1 -3.47,-1.45 -3.47,-1.45 0,0 3.41,9.59 3.76,10.53 0.35,0.95 6.49,16.78 6.53,17.58 0.05,0.81 1.04,2.55 0.58,3.21 -0.46,0.66 -5.33,3.08 -8.15,4 -2.82,0.92 -5.65,0.6 -6.88,1.34 -1.23,0.74 -0.86,1.06 -3.1,1.8 -2.24,0.74 -3.84,0.88 -6.68,2.3 -2.82,1.44 -8.54,2.52 -8.8,2.65 z"
         id="path933"
         style="fill:#ffffff"
         inkscape:export-xdpi="96"
         inkscape:export-ydpi="96" />
    </g>
  </g>
</svg>
